<mxfile host="app.diagrams.net" modified="2024-05-19T06:20:36.101Z" agent="Mozilla/5.0 (X11; Linux x86_64; rv:125.0) Gecko/20100101 Firefox/125.0" etag="RkLdPdnw3BEDhPzv6S8c" version="24.4.4" type="github">
  <diagram name="Page-1" id="b5b7bab2-c9e2-2cf4-8b2a-24fd1a2a6d21">
    <mxGraphModel dx="701" dy="358" grid="1" gridSize="10" guides="1" tooltips="1" connect="1" arrows="1" fold="1" page="1" pageScale="1" pageWidth="827" pageHeight="1169" background="none" math="0" shadow="0">
      <root>
        <mxCell id="0" />
        <mxCell id="1" parent="0" />
        <mxCell id="mrMH-_CJhcBoCDiGt5kd-1" value="User" style="shape=umlActor;verticalLabelPosition=bottom;verticalAlign=top;html=1;outlineConnect=0;" vertex="1" parent="1">
          <mxGeometry x="80" y="200" width="30" height="60" as="geometry" />
        </mxCell>
        <mxCell id="mrMH-_CJhcBoCDiGt5kd-2" value="" style="swimlane;startSize=0;" vertex="1" parent="1">
          <mxGeometry x="200" y="120" width="240" height="240" as="geometry" />
        </mxCell>
        <mxCell id="mrMH-_CJhcBoCDiGt5kd-3" value="" style="ellipse;whiteSpace=wrap;html=1;" vertex="1" parent="mrMH-_CJhcBoCDiGt5kd-2">
          <mxGeometry x="20" y="20" width="80" height="50" as="geometry" />
        </mxCell>
        <mxCell id="mrMH-_CJhcBoCDiGt5kd-6" value="&lt;font style=&quot;font-size: 7px;&quot;&gt;Pflanze im System erstellen&lt;br&gt;&lt;/font&gt;" style="text;html=1;align=center;verticalAlign=middle;whiteSpace=wrap;rounded=0;" vertex="1" parent="mrMH-_CJhcBoCDiGt5kd-2">
          <mxGeometry x="30" y="30" width="60" height="30" as="geometry" />
        </mxCell>
        <mxCell id="mrMH-_CJhcBoCDiGt5kd-10" value="" style="ellipse;whiteSpace=wrap;html=1;" vertex="1" parent="mrMH-_CJhcBoCDiGt5kd-2">
          <mxGeometry x="20" y="130" width="80" height="50" as="geometry" />
        </mxCell>
        <mxCell id="mrMH-_CJhcBoCDiGt5kd-11" value="&lt;font style=&quot;font-size: 7px;&quot;&gt;benachrichtigung zum gießen erhalten&lt;/font&gt;" style="text;html=1;align=center;verticalAlign=middle;whiteSpace=wrap;rounded=0;" vertex="1" parent="mrMH-_CJhcBoCDiGt5kd-2">
          <mxGeometry x="30" y="140" width="60" height="30" as="geometry" />
        </mxCell>
        <mxCell id="mrMH-_CJhcBoCDiGt5kd-12" value="" style="endArrow=classic;html=1;rounded=0;entryX=0.5;entryY=0;entryDx=0;entryDy=0;exitX=0.5;exitY=1;exitDx=0;exitDy=0;" edge="1" parent="mrMH-_CJhcBoCDiGt5kd-2" source="mrMH-_CJhcBoCDiGt5kd-3" target="mrMH-_CJhcBoCDiGt5kd-10">
          <mxGeometry width="50" height="50" relative="1" as="geometry">
            <mxPoint x="30" y="120" as="sourcePoint" />
            <mxPoint x="80" y="70" as="targetPoint" />
          </mxGeometry>
        </mxCell>
        <mxCell id="mrMH-_CJhcBoCDiGt5kd-15" value="" style="ellipse;whiteSpace=wrap;html=1;" vertex="1" parent="mrMH-_CJhcBoCDiGt5kd-2">
          <mxGeometry x="121" y="80" width="106" height="50" as="geometry" />
        </mxCell>
        <mxCell id="mrMH-_CJhcBoCDiGt5kd-16" value="&lt;font style=&quot;font-size: 7px;&quot;&gt;Pflanzen verwalten über Pflanzenmanagementsystem&lt;/font&gt;" style="text;html=1;align=center;verticalAlign=middle;whiteSpace=wrap;rounded=0;" vertex="1" parent="mrMH-_CJhcBoCDiGt5kd-2">
          <mxGeometry x="144" y="90" width="60" height="30" as="geometry" />
        </mxCell>
        <mxCell id="mrMH-_CJhcBoCDiGt5kd-18" value="" style="endArrow=classic;html=1;rounded=0;entryX=0;entryY=0;entryDx=0;entryDy=0;exitX=0.5;exitY=1;exitDx=0;exitDy=0;" edge="1" parent="mrMH-_CJhcBoCDiGt5kd-2" target="mrMH-_CJhcBoCDiGt5kd-15">
          <mxGeometry width="50" height="50" relative="1" as="geometry">
            <mxPoint x="90" y="60" as="sourcePoint" />
            <mxPoint x="90" y="120" as="targetPoint" />
          </mxGeometry>
        </mxCell>
        <mxCell id="mrMH-_CJhcBoCDiGt5kd-4" value="Plantix-App" style="text;html=1;align=center;verticalAlign=middle;whiteSpace=wrap;rounded=0;" vertex="1" parent="1">
          <mxGeometry x="180" y="100" width="110" height="30" as="geometry" />
        </mxCell>
        <mxCell id="mrMH-_CJhcBoCDiGt5kd-5" value="" style="endArrow=none;html=1;rounded=0;entryX=0;entryY=0.5;entryDx=0;entryDy=0;" edge="1" parent="1" source="mrMH-_CJhcBoCDiGt5kd-1" target="mrMH-_CJhcBoCDiGt5kd-3">
          <mxGeometry width="50" height="50" relative="1" as="geometry">
            <mxPoint x="120" y="230" as="sourcePoint" />
            <mxPoint x="200" y="140" as="targetPoint" />
          </mxGeometry>
        </mxCell>
        <mxCell id="mrMH-_CJhcBoCDiGt5kd-13" value="" style="endArrow=none;html=1;rounded=0;entryX=0;entryY=0.5;entryDx=0;entryDy=0;" edge="1" parent="1" target="mrMH-_CJhcBoCDiGt5kd-10">
          <mxGeometry width="50" height="50" relative="1" as="geometry">
            <mxPoint x="110" y="220" as="sourcePoint" />
            <mxPoint x="220" y="270" as="targetPoint" />
          </mxGeometry>
        </mxCell>
        <mxCell id="mrMH-_CJhcBoCDiGt5kd-14" value="User" style="shape=umlActor;verticalLabelPosition=bottom;verticalAlign=top;html=1;outlineConnect=0;" vertex="1" parent="1">
          <mxGeometry x="540" y="200" width="30" height="60" as="geometry" />
        </mxCell>
        <mxCell id="mrMH-_CJhcBoCDiGt5kd-17" value="" style="endArrow=none;html=1;rounded=0;entryX=0;entryY=0.5;entryDx=0;entryDy=0;exitX=1;exitY=0.5;exitDx=0;exitDy=0;" edge="1" parent="1" source="mrMH-_CJhcBoCDiGt5kd-15">
          <mxGeometry width="50" height="50" relative="1" as="geometry">
            <mxPoint x="430" y="277" as="sourcePoint" />
            <mxPoint x="540" y="220" as="targetPoint" />
          </mxGeometry>
        </mxCell>
      </root>
    </mxGraphModel>
  </diagram>
</mxfile>
